# xmcd
#
# Track frame offsets: 
#        150
#        18922
#        36862
#        54070
#        73812
#        89645
#        103412
#        120232
#        135122
#        151920
#        165762
#        178737
#        203255
#        221742
#
# Disc length: 3255 seconds
#
# Revision: 4
# Processed by: cddbd v1.5.2PL0 Copyright (c) Steve Scherf et al.
# Submitted via: ExactAudioCopy v0.95b3
#
DISCID=ac0cb50e
DTITLE=Chris Thomas King - Red Mud
DYEAR=1998
DGENRE=Blues
TTITLE0=Red Mud
TTITLE1=If It Ain't One Thing, It's Two
TTITLE2=Soon This Morning Blues
TTITLE3=Come On In My Kitchen
TTITLE4=I'm On Fire
TTITLE5=Sinking Feeling
TTITLE6=Alive
TTITLE7=Dark Cloud
TTITLE8=Hoodoo Party
TTITLE9=Rambling On My Mind
TTITLE10=Wanna Die With A Smile On My Face
TTITLE11=Death Letter Blues
TTITLE12=Bus Station Blues
TTITLE13=Raining Angels
EXTD=
EXTT0=
EXTT1=
EXTT2=
EXTT3=
EXTT4=
EXTT5=
EXTT6=
EXTT7=
EXTT8=
EXTT9=
EXTT10=
EXTT11=
EXTT12=
EXTT13=
PLAYORDER=
